Coordinates
version=1
nRows=7
nColumns=40
inDegrees=yes

Units are S.I. units (second, meters, Newtons, ...)
Angles are in degrees.

endheader
time	pelvis_tilt	pelvis_list	pelvis_rotation	pelvis_tx	pelvis_ty	pelvis_tz	hip_flexion_r	hip_adduction_r	hip_rotation_r	knee_angle_r	knee_angle_r_beta	ankle_angle_r	subtalar_angle_r	mtp_angle_r	hip_flexion_l	hip_adduction_l	hip_rotation_l	knee_angle_l	knee_angle_l_beta	ankle_angle_l	subtalar_angle_l	mtp_angle_l	lumbar_extension	lumbar_bending	lumbar_rotation	arm_flex_r	arm_add_r	arm_rot_r	elbow_flex_r	pro_sup_r	wrist_flex_r	wrist_dev_r	arm_flex_l	arm_add_l	arm_rot_l	elbow_flex_l	pro_sup_l	wrist_flex_l	wrist_dev_l
      2.05000000	     -2.67248701	     -0.91039207	      4.65811920	      0.36076946	      0.89535843	      1.10333048	     10.77631897	      2.33022763	    -15.16086669	    -21.64329831	     -0.37774682	      9.50362775	     -2.43105148	      4.44996309	     25.18223942	      5.22336316	      5.65390324	    -59.63947507	     -1.04090520	      7.41939644	     18.68825201	     18.18194988	     -3.38063019	      1.61380799	     -0.82323862	      3.48033417	    -11.23909899	    -12.88878953	     27.38488599	     89.95437384	      0.00000000	      0.00000000	     -2.27741597	      8.90912961	     16.99756788	     29.51382798	     89.95437384	      0.00000000	      0.00000000
      2.06000000	     -2.73555309	     -0.85439094	      4.49447556	      0.36772653	      0.89535754	      1.10386111	     10.20156591	      2.40522339	    -14.91767055	    -21.36825100	     -0.37294634	      9.94693696	     -2.29191820	      4.32664259	     25.84583997	      5.05775547	      5.87352737	    -58.37299668	     -1.01880099	      8.20404927	     18.84530024	     18.31911971	     -3.27781074	      1.53791781	     -0.48994437	      3.58562860	    -11.41196718	    -12.81831984	     27.50683074	     89.95437384	      0.00000000	      0.00000000	     -2.51331557	      8.83308846	     16.89147236	     28.93848086	     89.95437384	      0.00000000	      0.00000000
      2.07000000	     -2.84610693	     -0.93316896	      4.45633482	      0.37396501	      0.89502447	      1.10446872	      9.89275902	      2.55289611	    -15.00508489	    -21.39621999	     -0.37343449	     10.05645213	     -2.28691773	      4.24702977	     26.75482341	      5.18755710	      6.24779191	    -57.15582247	     -0.99755729	      8.41715268	     18.88130953	     18.20801473	     -3.25401557	      1.58555952	     -0.50966193	      3.84529172	    -11.49371033	    -12.78432979	     27.88059159	     89.95437384	      0.00000000	      0.00000000	     -2.90687252	      8.82107215	     16.83386874	     28.69499503	     89.95437384	      0.00000000	      0.00000000
      2.08000000	     -2.86030828	     -0.82535994	      4.22195891	      0.38100288	      0.89501975	      1.10494126	      9.24227812	      2.57833774	    -14.68447630	    -21.07366015	     -0.36780476	     10.45680262	     -2.12748744	      4.10599023	     27.18467414	      5.02527553	      6.62475227	    -55.50253632	     -0.96870200	      9.04129412	     18.89869397	     18.45205358	     -3.20571363	      1.46992603	     -0.08502003	      3.82623295	    -11.70030329	    -12.61714065	     28.18857987	     89.95437384	      0.00000000	      0.00000000	     -3.11707369	      8.72578354	     16.79429359	     28.12773364	     89.95437384	      0.00000000	      0.00000000
      2.09000000	     -2.94861210	     -0.93484907	      4.14647831	      0.38759038	      0.89458789	      1.10547100	      8.83802176	      2.77080021	    -14.76587046	    -21.02980937	     -0.36703941	     10.67308990	     -2.11994398	      4.01884754	     27.90552683	      5.19750853	      7.10763284	    -54.00926666	     -0.94263953	      9.23245808	     18.98500356	     18.49472145	     -3.14283977	      1.54982546	     -0.00842739	      3.99482715	    -11.79201766	    -12.58175101	     28.52024089	     89.95437384	      0.00000000	      0.00000000	     -3.51011039	      8.68567381	     16.74805830	     27.88968941	     89.95437384	      0.00000000	      0.00000000
      2.10000000	     -3.06339938	     -1.03751399	      4.08645585	      0.39410390	      0.89407354	      1.10585597	      8.46323927	      2.94758427	    -14.83166643	    -20.97498989	     -0.36608263	     10.85017621	     -2.11286119	      3.93933449	     28.61630004	      5.33954690	      7.61062960	    -52.39556403	     -0.91447511	      9.38021278	     19.02691268	     18.51421802	     -3.06126488	      1.62851973	      0.08621792	      4.15432116	    -11.91575994	    -12.50655391	     28.86965098	     89.95437384	      0.00000000	      0.00000000	     -3.85659498	      8.63446623	     16.70010713	     27.62747377	     89.95437384	      0.00000000	      0.00000000
      2.11000000	     -2.71012118	     -0.52210882	      3.60064230	      0.40108894	      0.89465215	      1.10629543	      7.38862200	      2.57989927	    -13.97425079	    -20.65597084	     -0.36051470	     11.29027968	     -1.86177436	      3.72503382	     28.24998308	      4.92038634	      8.59964868	    -50.11161232	     -0.87461263	      9.46928628	     18.97936181	     19.24321193	     -3.56600911	      1.08238544	      0.78791133	      4.09475557	    -12.13581140	    -12.06015649	     29.47575158	     89.95437384	      0.00000000	      0.00000000	     -3.77953621	      8.54995070	     16.76095378	     26.88847288	     89.95437384	      0.00000000	      0.00000000
